<svg width="127" height="44" viewBox="0 0 127 44" fill="none" xmlns="http://www.w3.org/2000/svg">
<path d="M22.8347 0.880797C27.7018 0.880797 31.8524 2.36796 35.2864 5.34229C36.6789 6.73482 37.4766 7.6474 37.6794 8.08003C38.2607 8.90473 38.7812 9.84435 39.2409 10.8989C39.9845 12.7646 40.3563 14.5019 40.3563 16.1107V16.5771C40.3563 19.3352 39.4302 21.9174 37.578 24.3239C34.1169 28.4069 28.7631 30.4483 21.5166 30.4483C20.9487 30.4483 20.0024 30.4145 18.6774 30.3469C17.4607 35.2276 16.8523 38.8846 16.8523 41.3182C16.8523 41.859 16.8928 42.3457 16.974 42.7783C16.9199 42.9811 16.7644 43.0825 16.5075 43.0825C15.7234 43.0825 14.5675 42.5552 13.0397 41.5007C11.9852 40.6219 11.4579 39.8513 11.4579 39.1888C12.161 36.1874 13.4994 30.712 15.4733 22.7624C16.4061 18.8147 17.5283 13.8665 18.8397 7.91779C18.9884 7.68796 19.2047 7.57304 19.4886 7.57304C20.2863 7.57304 21.476 8.16115 23.0578 9.33736C23.6797 9.87815 23.9907 10.2364 23.9907 10.4122L19.8739 25.8043V25.8246C19.8739 25.8922 20.5499 25.9801 21.9019 26.0882C22.3886 26.1018 22.7063 26.1085 22.855 26.1085C27.33 26.1085 30.7911 24.4862 33.2381 21.2414C34.5225 19.3757 35.1647 17.3748 35.1647 15.2387C35.1647 12.2779 33.9952 9.80379 31.6563 7.81639C29.2904 5.9642 26.3228 5.0381 22.7536 5.0381H22.1655C19.2588 5.0381 16.1966 6.15347 12.9789 8.38422C12.2353 8.88445 11.316 9.71591 10.2209 10.8786C8.09829 13.3257 7.037 15.935 7.037 18.7065C7.037 20.9778 7.8279 23.2694 9.4097 25.5813C9.42322 25.6353 9.42998 25.6894 9.42998 25.7435C9.42998 26.1085 9.09875 26.3384 8.43628 26.433C8.23349 26.4871 7.98337 26.5141 7.68594 26.5141C6.09062 26.5141 4.1911 26.0882 1.98739 25.2365C0.85174 24.7228 0.283913 24.1685 0.283913 23.5736C0.0946378 22.803 0 22.0188 0 21.2212V20.8156C0 18.0305 1.02074 15.0967 3.06221 12.0143C3.65707 11.0814 4.65077 9.89167 6.0433 8.44506C7.71974 6.8903 9.05143 5.82224 10.0384 5.24089C11.3363 4.3486 12.7085 3.58473 14.1551 2.94931C15.3178 2.40852 16.7306 1.92857 18.3935 1.50946C20.1646 1.09035 21.645 0.880797 22.8347 0.880797ZM43.2157 11.9129H43.2968C43.9593 11.9129 44.838 12.6632 45.9331 14.1639C46.3117 14.8128 46.501 15.2793 46.501 15.5632C46.501 15.6037 46.386 15.9958 46.1562 16.7394L45.5681 18.7268C45.487 18.7673 45.4194 18.7876 45.3653 18.7876C44.9867 18.7876 44.2972 18.3212 43.2968 17.3883C42.4586 16.4825 42.0395 15.7727 42.0395 15.259C42.3234 13.9205 42.5667 12.8728 42.7695 12.1157C42.9047 11.9805 43.0534 11.9129 43.2157 11.9129ZM41.4311 19.1729C42.1071 19.1729 42.9656 19.876 44.0066 21.282C44.4527 21.9715 44.6758 22.4853 44.6758 22.8232C43.7429 25.8246 42.7357 29.9954 41.6541 35.3357C41.6406 35.4574 41.6339 35.5723 41.6339 35.6805C41.6609 35.7481 41.6879 35.7886 41.715 35.8021H41.7758C42.0462 35.7345 42.5329 35.2208 43.2359 34.2609C44.3986 32.7467 45.683 30.908 47.0891 28.7449C47.4406 28.2987 47.7988 28.0756 48.1639 28.0756C48.5154 28.0756 48.7182 28.3055 48.7723 28.7651C48.7723 29.1437 48.5154 29.7724 48.0016 30.6511C46.893 32.936 45.8047 34.9369 44.7366 36.6539C43.2495 38.8711 41.8907 39.9797 40.6604 39.9797C39.8898 39.831 39.0178 39.2023 38.0444 38.0937C37.5712 37.4448 37.3346 36.9175 37.3346 36.5119V36.4308C38.3891 30.9148 39.5856 25.2297 40.9241 19.3757C41.0728 19.2405 41.2418 19.1729 41.4311 19.1729ZM48.5492 30.2455C49.0359 30.8539 49.2792 31.4015 49.2792 31.8882V31.9085C49.2792 32.0166 49.1576 32.3479 48.9142 32.9022C48.779 33.3348 48.7114 33.7201 48.7114 34.0581C48.7114 35.3289 49.4482 36.2145 50.9219 36.7147C51.2599 36.7823 51.5641 36.8161 51.8345 36.8161H51.8953C52.7606 36.8161 53.4365 36.5322 53.9233 35.9644C53.9909 35.8021 54.0247 35.6467 54.0247 35.4979V35.1938C54.0247 34.5989 53.592 33.0036 52.7268 30.4078C52.1184 28.3393 51.8615 26.7034 51.9561 25.5001V25.2162H51.9359C51.9088 25.2162 50.8881 26.7304 48.8737 29.7588C48.6573 30.0157 48.5492 30.178 48.5492 30.2455ZM53.0107 19.4366C53.7002 19.4366 54.6871 20.2477 55.9715 21.8701C56.4041 22.4785 56.6204 22.8368 56.6204 22.9449C56.1878 23.6344 55.9715 24.5538 55.9715 25.7029V25.8043C55.9715 27.981 56.5731 30.5633 57.7764 33.5511C58.0603 34.4299 58.2022 35.1938 58.2022 35.8427C58.2022 37.6679 57.2423 38.959 55.3225 39.7161C54.5384 40 53.7407 40.142 52.9296 40.142H52.6051C50.6583 40.142 48.8128 39.4389 47.0688 38.0329C45.4329 36.4105 44.615 34.5313 44.615 32.3952C44.615 30.7728 45.1422 29.333 46.1968 28.0756C46.3184 27.9269 46.6226 28.1094 47.1093 28.6232C48.3802 26.8521 49.9349 24.6078 51.7736 21.8904C52.355 20.2545 52.7673 19.4366 53.0107 19.4366ZM70.7755 19.1324C71.6678 19.2 72.4925 19.4366 73.2496 19.8422C74.6286 20.7345 75.3182 22.1608 75.3182 24.1211V24.2225C75.3182 24.236 75.3249 24.2428 75.3384 24.2428L75.3182 24.3036V24.4659C75.3182 26.6831 74.5205 29.3803 72.9252 32.5574L72.2965 33.6322C72.31 33.6322 72.3168 33.639 72.3168 33.6525C72.9387 33.5984 73.6417 33.3078 74.4259 32.7805C75.5615 31.9152 76.4741 30.9215 77.1636 29.7994C77.3123 29.5966 77.5489 29.1978 77.8734 28.6029C78.1978 28.2514 78.5358 28.0756 78.8874 28.0756C79.2253 28.0756 79.4619 28.2446 79.5971 28.5826C79.6377 28.7584 79.658 28.8936 79.658 28.9882V29.0085C79.658 29.2924 79.2524 30.0901 78.4412 31.4015C76.3592 34.4029 74.0946 35.9035 71.6476 35.9035H71.5867C71.438 35.9035 71.2082 35.8968 70.8972 35.8833C70.6133 36.3564 70.0928 36.9716 69.3357 37.7287C67.6052 39.2699 65.9017 40.0406 64.2253 40.0406C62.5488 40.0406 61.1495 39.2429 60.0274 37.6476C59.2973 36.4038 58.9323 34.9234 58.9323 33.2064C58.9323 30.543 59.6759 27.5416 61.163 24.2023C61.8931 22.6475 62.7246 21.3969 63.6574 20.4505C64.1306 20.0449 64.5159 19.8422 64.8134 19.8422C65.246 19.8422 65.5975 20.241 65.8679 21.0386C65.9085 21.0927 65.9693 21.255 66.0504 21.5254H66.1112C67.5038 19.93 69.0585 19.1324 70.7755 19.1324ZM66.4357 28.6435C66.4357 30.4686 67.0441 31.8476 68.2609 32.7805C68.8017 33.132 69.2749 33.3348 69.6804 33.3889C69.8021 33.2942 70.059 32.9157 70.4511 32.2532C71.9788 29.3735 72.7427 27.1495 72.7427 25.5813V25.3379C72.7427 23.8372 71.9991 23.0869 70.5119 23.0869C68.9571 23.0869 67.7066 24.2293 66.7602 26.5141C66.5439 27.2171 66.4357 27.9269 66.4357 28.6435ZM63.8197 31.3812C63.5222 32.1113 63.3735 32.8481 63.3735 33.5917C63.3735 34.9301 63.8737 35.8359 64.8742 36.3091C65.1311 36.4038 65.4015 36.4511 65.6854 36.4511C66.3208 36.4511 66.9765 36.1942 67.6525 35.6805V35.6399C66.8954 35.4101 66.1248 34.9504 65.3406 34.2609C64.6782 33.5714 64.2726 32.963 64.1239 32.4357C64.0292 32.2465 63.9413 31.8949 63.8602 31.3812H63.8197ZM85.2348 19.2338C87.2493 19.2338 88.6215 19.9909 89.3516 21.5051C89.5679 22.0999 89.6761 22.634 89.6761 23.1072C89.6761 23.4451 88.973 23.9386 87.567 24.5876C87.1344 24.7228 86.8234 24.7904 86.6341 24.7904C86.4043 24.7633 86.2894 24.6619 86.2894 24.4862C86.5733 23.6344 86.7152 23.168 86.7152 23.0869V22.9246C86.7152 22.7489 86.5395 22.6407 86.188 22.6002C84.9171 22.6002 83.6125 23.6682 82.274 25.8043C81.7468 26.6426 81.2533 27.7376 80.7936 29.0896C80.4286 30.3199 80.2461 31.3744 80.2461 32.2532V32.7602C80.2461 34.4907 80.8747 35.6264 82.1321 36.1672C82.4025 36.2753 82.7134 36.3294 83.0649 36.3294C85.3768 36.3294 88.2497 33.6187 91.6837 28.1973C91.9271 27.981 92.1772 27.8728 92.4341 27.8728C92.9613 27.954 93.225 28.1973 93.225 28.6029C93.225 28.8192 93.0154 29.2857 92.5963 30.0022C92.0961 31.0027 91.2443 32.3614 90.0411 34.0784C89.4327 34.9301 88.5404 35.9509 87.3642 37.1406C85.9311 38.3844 84.8225 39.1483 84.0384 39.4322C83.092 39.8648 82.22 40.0811 81.4223 40.0811C79.4755 40.0811 77.8599 38.9657 76.5755 36.735C75.8995 35.3425 75.5615 33.8621 75.5615 32.2938V32.0301C75.5615 29.4073 76.3727 26.7169 77.9951 23.9589C80.023 20.8088 82.4363 19.2338 85.2348 19.2338ZM94.7662 11.9129H94.8473C95.5098 11.9129 96.3886 12.6632 97.4837 14.1639C97.8622 14.8128 98.0515 15.2793 98.0515 15.5632C98.0515 15.6037 97.9366 15.9958 97.7067 16.7394L97.1186 18.7268C97.0375 18.7673 96.9699 18.7876 96.9158 18.7876C96.5373 18.7876 95.8478 18.3212 94.8473 17.3883C94.0091 16.4825 93.59 15.7727 93.59 15.259C93.8739 13.9205 94.1173 12.8728 94.3201 12.1157C94.4553 11.9805 94.604 11.9129 94.7662 11.9129ZM92.9816 19.1729C93.6576 19.1729 94.5161 19.876 95.5571 21.282C96.0033 21.9715 96.2263 22.4853 96.2263 22.8232C95.2935 25.8246 94.2863 29.9954 93.2047 35.3357C93.1912 35.4574 93.1844 35.5723 93.1844 35.6805C93.2115 35.7481 93.2385 35.7886 93.2655 35.8021H93.3264C93.5968 35.7345 94.0835 35.2208 94.7865 34.2609C95.9492 32.7467 97.2336 30.908 98.6396 28.7449C98.9911 28.2987 99.3494 28.0756 99.7144 28.0756C100.066 28.0756 100.269 28.3055 100.323 28.7651C100.323 29.1437 100.066 29.7724 99.5522 30.6511C98.4436 32.936 97.3552 34.9369 96.2872 36.6539C94.8 38.8711 93.4413 39.9797 92.211 39.9797C91.4404 39.831 90.5684 39.2023 89.5949 38.0937C89.1217 37.4448 88.8852 36.9175 88.8852 36.5119V36.4308C89.9397 30.9148 91.1362 25.2297 92.4746 19.3757C92.6233 19.2405 92.7923 19.1729 92.9816 19.1729ZM111.862 19.1729C112.511 19.1729 113.342 19.8354 114.356 21.1603C114.856 21.8904 115.107 22.4447 115.107 22.8232L114.417 25.1757C113.565 28.3798 112.781 31.8409 112.065 35.5588V35.6196C112.078 35.7413 112.105 35.8021 112.146 35.8021H112.207C112.531 35.6805 113.045 35.1464 113.748 34.2001C115.113 32.3749 116.398 30.5227 117.601 28.6435C117.925 28.2784 118.236 28.0959 118.534 28.0959C118.534 28.0824 118.541 28.0756 118.554 28.0756C118.933 28.0756 119.149 28.292 119.203 28.7246V28.7449C119.203 29.1369 118.98 29.7048 118.534 30.4483C116.884 33.8147 115.6 36.1063 114.681 37.3231C113.396 39.0942 112.207 39.9797 111.112 39.9797C110.665 39.9797 109.942 39.5201 108.942 38.6007C108.157 37.749 107.765 37.0324 107.765 36.4511L108.313 33.6728H108.272C107.475 34.7408 106.772 35.6467 106.163 36.3902C104.081 38.7832 102.358 39.9797 100.992 39.9797H100.911C100.37 39.9797 99.7077 39.7634 98.9235 39.3308C97.3012 38.2627 96.49 36.3632 96.49 33.6322C96.49 30.6985 97.3552 27.6295 99.0858 24.4253C99.5589 23.5601 100.296 22.5664 101.296 21.4442C102.756 20.0111 104.169 19.2946 105.535 19.2946H105.575C107.319 19.2946 108.874 20.3356 110.239 22.4177C110.429 22.7421 110.53 22.9044 110.544 22.9044C110.598 22.9044 110.821 21.958 111.213 20.0652C111.321 19.5785 111.402 19.3216 111.456 19.2946C111.605 19.2135 111.74 19.1729 111.862 19.1729ZM101.215 34.2203V34.5448C101.215 35.1397 101.411 35.5047 101.803 35.6399C101.925 35.694 102.033 35.721 102.128 35.721H102.229C103.284 35.721 105.541 33.4227 109.002 28.826C109.34 28.5015 109.509 28.1635 109.509 27.812C109.523 27.812 109.557 27.643 109.611 27.305C109.395 26.4803 109.171 25.8314 108.942 25.3582C108.279 24.1144 107.529 23.4925 106.691 23.4925H106.468C105.616 23.4925 104.69 24.351 103.689 26.068C103.284 26.7575 102.871 27.6633 102.452 28.7854C101.627 31.1243 101.215 32.936 101.215 34.2203ZM122.549 3.41574H122.59C123.374 3.41574 124.469 4.22692 125.875 5.84928C126.348 6.51174 126.598 6.99845 126.625 7.30941C125.49 11.0949 123.915 17.1247 121.9 25.3987C120.318 31.7395 119.528 35.1532 119.528 35.6399C119.528 35.721 119.555 35.7751 119.609 35.8021H119.669C119.953 35.721 120.474 35.1735 121.231 34.1595C122.448 32.5371 123.746 30.6647 125.125 28.5421C125.463 28.2311 125.76 28.0756 126.017 28.0756C126.396 28.0756 126.612 28.3055 126.666 28.7651C126.666 29.1302 126.375 29.8332 125.794 30.8742C124.591 33.3078 123.475 35.3222 122.448 36.9175C121.028 38.959 119.737 39.9797 118.574 39.9797C118.061 39.9797 117.222 39.4592 116.06 38.4182C115.276 37.6341 114.884 36.9716 114.884 36.4308C115.411 33.8215 116.614 28.2582 118.493 19.7408C120.4 11.1152 121.603 5.73436 122.103 3.59825C122.225 3.47658 122.373 3.41574 122.549 3.41574Z" fill="#FFFDFD"/>
</svg>
